<svg xmlns="http://www.w3.org/2000/svg" width="127.2" height="147.6" viewBox="-241 323.4 127.2 147.6" enable-background="new -241 323.4 127.2 147.6"><style type="text/css">.st0{fill:#FFFFFF;stroke:#A04948;stroke-width:3.9067;stroke-miterlimit:10;} .st1{fill:none;stroke:#A04948;stroke-width:3.9067;stroke-miterlimit:10;} .st2{fill:#A04948;}</style><path class="st0" d="M-125.1 439.9c-.4-.5-.8-.9-1.4-1.2-2.5-1.3-10.3-6.9-8.7-26.8 1.7-21.7-1.6-35.9-2.1-38 0-.2-.1-.4-.2-.5-1-2.4-9.2-20.4-24-25-1.3-.4-2.3-1.5-2.6-2.8-.5-2.6-1.7-6.7-4.2-9.1-1.7-1.7-4.7-3.1-7.9-3.5h-.8c-3.2.3-6.2 1.8-7.9 3.4-2.5 2.5-3.7 6.6-4.2 9.1-.3 1.3-1.3 2.4-2.6 2.8-14.8 4.5-23 22.5-24 25-.1.2-.1.4-.2.5-.5 2.1-3.8 16.3-2.1 38 1.6 19.9-6.2 25.5-8.7 26.8-.5.3-1 .7-1.4 1.2l-2.9 4.1c-1.8 2.5 0 6 3 6h102.7c3.1 0 4.8-3.5 3-6l-2.8-4zM-163.7 449.9c0 6.9-5.6 12.6-12.6 12.6s-12.6-5.6-12.6-12.6"/><path class="st1" d="M-226.7 439.6h100.2"/><path class="st2" d="M-185.8 357.8h18v52.1h-18z"/><circle class="st2" cx="-176.8" cy="422.6" r="9"/></svg>