<?xml version="1.0" encoding="utf-8"?>
<!-- Generator: Adobe Illustrator 19.1.0, SVG Export Plug-In . SVG Version: 6.00 Build 0)  -->
<!DOCTYPE svg PUBLIC "-//W3C//DTD SVG 1.1//EN" "http://www.w3.org/Graphics/SVG/1.1/DTD/svg11.dtd">
<svg version="1.1" id="Layer_1" xmlns="http://www.w3.org/2000/svg" xmlns:xlink="http://www.w3.org/1999/xlink" x="0px" y="0px"
	 width="127.2px" height="147.6px" viewBox="0 0 127.2 147.6" style="enable-background:new 0 0 127.2 147.6;" xml:space="preserve"
	>
<style type="text/css">
	.st0{fill:none;stroke:#A04948;stroke-width:3.9067;stroke-miterlimit:10;}
	.st1{fill:#A04948;}
</style>
<path class="st0" d="M115.9,116.5c-0.4-0.5-0.8-0.9-1.4-1.2c-2.5-1.3-10.3-6.9-8.7-26.8c1.7-21.7-1.6-35.9-2.1-38
	c0-0.2-0.1-0.4-0.2-0.5c-1-2.4-9.2-20.4-24-25c-1.3-0.4-2.3-1.5-2.6-2.8c-0.5-2.6-1.7-6.7-4.2-9.1C71,11.4,68,10,64.8,9.6l-0.8,0
	c-3.2,0.3-6.2,1.8-7.9,3.4c-2.5,2.5-3.7,6.6-4.2,9.1c-0.3,1.3-1.3,2.4-2.6,2.8c-14.8,4.5-23,22.5-24,25c-0.1,0.2-0.1,0.4-0.2,0.5
	c-0.5,2.1-3.8,16.3-2.1,38c1.6,19.9-6.2,25.5-8.7,26.8c-0.5,0.3-1,0.7-1.4,1.2l-2.9,4.1c-1.8,2.5,0,6,3,6h53.1h49.6
	c3.1,0,4.8-3.5,3-6L115.9,116.5z"/>
<path class="st0" d="M77.3,126.5c0,6.9-5.6,12.6-12.6,12.6s-12.6-5.6-12.6-12.6"/>
<line class="st0" x1="14.3" y1="116.2" x2="114.5" y2="116.2"/>
<rect x="55.2" y="34.4" class="st1" width="18" height="52.1"/>
<circle class="st1" cx="64.2" cy="99.2" r="9"/>
<g>
</g>
<g>
</g>
<g>
</g>
<g>
</g>
<g>
</g>
<g>
</g>
</svg>
