<?xml version="1.0" encoding="utf-8"?>
<!-- Generator: Adobe Illustrator 19.1.0, SVG Export Plug-In . SVG Version: 6.00 Build 0)  -->
<!DOCTYPE svg PUBLIC "-//W3C//DTD SVG 1.1//EN" "http://www.w3.org/Graphics/SVG/1.1/DTD/svg11.dtd">
<svg version="1.1" id="Layer_1" xmlns="http://www.w3.org/2000/svg" xmlns:xlink="http://www.w3.org/1999/xlink" x="0px" y="0px"
	 width="213.6px" height="144.4px" viewBox="0 0 213.6 144.4" style="enable-background:new 0 0 213.6 144.4;" xml:space="preserve"
	>
<style type="text/css">
	.st0{fill:none;stroke:#A04948;stroke-width:3.9067;stroke-miterlimit:10;}
</style>
<path class="st0" d="M154.4,19.7c-5.2,0-10.1,1.6-14.1,4.4c2.5,4.4,4,9.6,4,15c0,8.3-3.3,15.8-8.7,21.3c4.5,5.3,11.2,8.7,18.8,8.7
	c13.6,0,24.7-11.1,24.7-24.7S168,19.7,154.4,19.7z"/>
<circle class="st0" cx="107.2" cy="35.9" r="28.5"/>
<path class="st0" d="M70.7,39.7c0-5.3,1.4-10.3,3.7-14.6c-4.1-3-9.1-4.8-14.6-4.8c-13.6,0-24.7,11-24.7,24.7s11,24.7,24.7,24.7
	c7.7,0,14.6-3.5,19.1-9.1C73.8,55.1,70.7,47.8,70.7,39.7z"/>
<g>
	<path class="st0" d="M46.6,92.2c0-3.6,1.4-6,4.2-7.3l18.2-8.4c-14.7,4.3-25.7-4.7-25.7-4.7L14.3,85.4c0,0-3.4,0.4-3.4,6v25.8
		c0,0-0.2,6.4,5.2,6.4c1.4,0,13.3,0,30.5,0V92.2z"/>
	<path class="st0" d="M199.3,85.4c-3.7-1.8-2.7-1.3-27.9-13.3c-10.8,6.9-20.5,6.2-27,4.2l18,8.7c3.1,1.3,4.6,3.7,4.6,7.3v31.4
		c18.1,0,30.4,0,30.4,0s4.7-0.4,5-4c0.3-3.5,0.3-28.2,0.3-28.2S202.1,86.7,199.3,85.4z"/>
</g>
<path class="st0" d="M127.8,74.7L150,88.4c2.4,1.3,3.6,3.7,3.6,7.2v32.6c-0.2,4.8-2.1,7.5-5.6,8H65.8c-1.4-0.3-2.6-1.1-3.6-2.7
	s-1.5-3.3-1.5-5.3l0,0V95.6c0-3.5,1.1-5.9,3.3-7.2l23.1-13.6L127.8,74.7z"/>
<g>
</g>
<g>
</g>
<g>
</g>
<g>
</g>
<g>
</g>
<g>
</g>
</svg>
