<?xml version="1.0" encoding="utf-8"?>
<!-- Generator: Adobe Illustrator 19.1.0, SVG Export Plug-In . SVG Version: 6.00 Build 0)  -->
<!DOCTYPE svg PUBLIC "-//W3C//DTD SVG 1.1//EN" "http://www.w3.org/Graphics/SVG/1.1/DTD/svg11.dtd">
<svg version="1.1" id="Layer_1" xmlns="http://www.w3.org/2000/svg" xmlns:xlink="http://www.w3.org/1999/xlink" x="0px" y="0px"
	 width="213.6px" height="144.4px" viewBox="-198 324.6 213.6 144.4" style="enable-background:new -198 324.6 213.6 144.4;"
	 xml:space="preserve">
<style type="text/css">
	.st0{fill:#FFFFFF;stroke:#A04948;stroke-width:3.9067;stroke-miterlimit:10;}
</style>
<path class="st0" d="M-43.6,344.3c-5.2,0-10.1,1.6-14.1,4.4c2.5,4.4,4,9.6,4,15c0,8.3-3.3,15.8-8.7,21.3c4.5,5.3,11.2,8.7,18.8,8.7
	c13.6,0,24.7-11.1,24.7-24.7S-30,344.3-43.6,344.3z"/>
<circle class="st0" cx="-90.8" cy="360.5" r="28.5"/>
<path class="st0" d="M-127.3,364.3c0-5.3,1.4-10.3,3.7-14.6c-4.1-3-9.1-4.8-14.6-4.8c-13.6,0-24.7,11-24.7,24.7s11,24.7,24.7,24.7
	c7.7,0,14.6-3.5,19.1-9.1C-124.2,379.7-127.3,372.4-127.3,364.3z"/>
<g>
	<path class="st0" d="M-151.4,416.8c0-3.6,1.4-6,4.2-7.3l18.2-8.4c-14.7,4.3-25.7-4.7-25.7-4.7l-29,13.6c0,0-3.4,0.4-3.4,6v25.8
		c0,0-0.2,6.4,5.2,6.4c1.4,0,13.3,0,30.5,0V416.8z"/>
	<path class="st0" d="M1.3,410c-3.7-1.8-2.7-1.3-27.9-13.3c-10.8,6.9-20.5,6.2-27,4.2l18,8.7c3.1,1.3,4.6,3.7,4.6,7.3v31.4
		c18.1,0,30.4,0,30.4,0s4.7-0.4,5-4c0.3-3.5,0.3-28.2,0.3-28.2S4.1,411.3,1.3,410z"/>
</g>
<path class="st0" d="M-70.2,399.3L-48,413c2.4,1.3,3.6,3.7,3.6,7.2v32.6c-0.2,4.8-2.1,7.5-5.6,8h-82.2c-1.4-0.3-2.6-1.1-3.6-2.7
	s-1.5-3.3-1.5-5.3l0,0v-32.6c0-3.5,1.1-5.9,3.3-7.2l23.1-13.6L-70.2,399.3z"/>
</svg>
