<svg xmlns="http://www.w3.org/2000/svg" width="213.6" height="144.4" viewBox="-198 324.6 213.6 144.4" enable-background="new -198 324.6 213.6 144.4"><style type="text/css">.st0{fill:#FFFFFF;stroke:#A04948;stroke-width:3.9067;stroke-miterlimit:10;}</style><path class="st0" d="M-43.6 344.3c-5.2 0-10.1 1.6-14.1 4.4 2.5 4.4 4 9.6 4 15 0 8.3-3.3 15.8-8.7 21.3 4.5 5.3 11.2 8.7 18.8 8.7 13.6 0 24.7-11.1 24.7-24.7s-11.1-24.7-24.7-24.7z"/><circle class="st0" cx="-90.8" cy="360.5" r="28.5"/><path class="st0" d="M-127.3 364.3c0-5.3 1.4-10.3 3.7-14.6-4.1-3-9.1-4.8-14.6-4.8-13.6 0-24.7 11-24.7 24.7s11 24.7 24.7 24.7c7.7 0 14.6-3.5 19.1-9.1-5.1-5.5-8.2-12.8-8.2-20.9zM-151.4 416.8c0-3.6 1.4-6 4.2-7.3l18.2-8.4c-14.7 4.3-25.7-4.7-25.7-4.7l-29 13.6s-3.4.4-3.4 6v25.8s-.2 6.4 5.2 6.4h30.5v-31.4zM1.3 410c-3.7-1.8-2.7-1.3-27.9-13.3-10.8 6.9-20.5 6.2-27 4.2l18 8.7c3.1 1.3 4.6 3.7 4.6 7.3v31.4h30.4s4.7-.4 5-4c.3-3.5.3-28.2.3-28.2s-.6-4.8-3.4-6.1zM-70.2 399.3l22.2 13.7c2.4 1.3 3.6 3.7 3.6 7.2v32.6c-.2 4.8-2.1 7.5-5.6 8h-82.2c-1.4-.3-2.6-1.1-3.6-2.7s-1.5-3.3-1.5-5.3v-32.6c0-3.5 1.1-5.9 3.3-7.2l23.1-13.6 40.7-.1z"/></svg>