<svg xmlns="http://www.w3.org/2000/svg" width="201" height="155.2" viewBox="0 0 201 155.2"><style type="text/css">.st0{fill:#FFFFFF;stroke:#A04948;stroke-width:4.5728;stroke-miterlimit:10;} .st1{fill:#A04948;} .st2{fill:#FFFFFF;stroke:#A04948;stroke-width:4.4916;stroke-miterlimit:10;} .st3{fill:#FFFFFF;} .st4{fill:#FFFFFF;stroke:#A04948;stroke-width:2.9944;stroke-miterlimit:10;} .st5{fill:none;stroke:#FFFFFF;stroke-width:0.7486;stroke-miterlimit:10;}</style><path class="st0" d="M10.5 107.3v-92.1h151.7v92.1"/><path class="st1" d="M164.5 128h-149.2c-3.9 0-7-3.1-7-7v-20h156.2v27zM67.2 128v7.7l-7.9 3.4h49.8l-6-3.4v-7.7z"/><path class="st2" d="M188.4 133.5h-62.1v-74.6c0-1.8 1.5-3.3 3.3-3.3h54.5c2.4 0 4.3 1.9 4.3 4.3v73.6z"/><path class="st1" d="M187.5 141.2h-60c-1.9 0-3.4-1.5-3.4-3.4v-4.2h66.6v4.5c0 1.6-1.5 3.1-3.2 3.1z"/><circle class="st3" cx="159.2" cy="136.5" r="3"/><path class="st4" d="M194.2 139.7h-19.5v-33.7c0-1 .8-1.8 1.8-1.8h15.8c1 0 1.9.8 1.9 1.9v33.6z"/><path class="st1" d="M193.8 145.1h-18.9c-.9 0-1.7-.7-1.7-1.7v-3.1h22.4v2.8c.1 1.1-.8 2-1.8 2zM175.3 104.2h18.9v4.7h-18.9z"/><circle class="st3" cx="184.8" cy="141.9" r="1.6"/><circle class="st3" cx="180.8" cy="106.4" r=".7"/><path class="st5" d="M183.2 106.6h8.5"/></svg>