<?xml version="1.0" encoding="utf-8"?>
<!-- Generator: Adobe Illustrator 19.1.0, SVG Export Plug-In . SVG Version: 6.00 Build 0)  -->
<!DOCTYPE svg PUBLIC "-//W3C//DTD SVG 1.1//EN" "http://www.w3.org/Graphics/SVG/1.1/DTD/svg11.dtd">
<svg version="1.1" id="Layer_1" xmlns="http://www.w3.org/2000/svg" xmlns:xlink="http://www.w3.org/1999/xlink" x="0px" y="0px"
	 width="201px" height="155.2px" viewBox="0 0 201 155.2" style="enable-background:new 0 0 201 155.2;" xml:space="preserve">
<style type="text/css">
	.st0{fill:#FFFFFF;stroke:#A04948;stroke-width:4.5728;stroke-miterlimit:10;}
	.st1{fill:#A04948;}
	.st2{fill:#FFFFFF;stroke:#A04948;stroke-width:4.4916;stroke-miterlimit:10;}
	.st3{fill:#FFFFFF;}
	.st4{fill:#FFFFFF;stroke:#A04948;stroke-width:2.9944;stroke-miterlimit:10;}
	.st5{fill:none;stroke:#FFFFFF;stroke-width:0.7486;stroke-miterlimit:10;}
</style>
<polyline class="st0" points="10.5,107.3 10.5,15.2 162.2,15.2 162.2,107.3 "/>
<path class="st1" d="M164.5,128H15.3c-3.9,0-7-3.1-7-7V101h156.2V128z"/>
<polygon class="st1" points="67.2,128 67.2,135.7 59.3,139.1 109.1,139.1 103.1,135.7 103.1,128 "/>
<path class="st2" d="M188.4,133.5h-62.1V58.9c0-1.8,1.5-3.3,3.3-3.3h54.5c2.4,0,4.3,1.9,4.3,4.3V133.5z"/>
<path class="st1" d="M187.5,141.2h-60c-1.9,0-3.4-1.5-3.4-3.4v-4.2h66.6v4.5C190.7,139.7,189.2,141.2,187.5,141.2z"/>
<circle class="st3" cx="159.2" cy="136.5" r="3"/>
<path class="st4" d="M194.2,139.7h-19.5V106c0-1,0.8-1.8,1.8-1.8h15.8c1,0,1.9,0.8,1.9,1.9V139.7z"/>
<path class="st1" d="M193.8,145.1h-18.9c-0.9,0-1.7-0.7-1.7-1.7v-3.1h22.4v2.8C195.7,144.2,194.8,145.1,193.8,145.1z"/>
<rect x="175.3" y="104.2" class="st1" width="18.9" height="4.7"/>
<circle class="st3" cx="184.8" cy="141.9" r="1.6"/>
<circle class="st3" cx="180.8" cy="106.4" r="0.7"/>
<line class="st5" x1="183.2" y1="106.6" x2="191.7" y2="106.6"/>
<g>
</g>
<g>
</g>
<g>
</g>
<g>
</g>
<g>
</g>
<g>
</g>
</svg>
