<svg xmlns="http://www.w3.org/2000/svg" width="185.8" height="148.7" viewBox="0 0 185.8 148.7"><style type="text/css">.st0{fill:#ABB0B3;stroke:#FFFFFF;stroke-width:4;stroke-miterlimit:10;} .st1{fill:#FFFFFF;} .st2{fill:#A04847;} .st3{fill:none;stroke:#FFFFFF;stroke-width:3.808;stroke-miterlimit:10;} .st4{fill:none;stroke:#FFFFFF;stroke-width:0.7982;stroke-miterlimit:10;}</style><path class="st0" d="M8.2 9h169.6v130.7h-169.6z"/><path class="st1" d="M53.5 50.2c5.8 0 7.1 4.6 7.1 7.6 0 4.3-2.4 7.8-7.3 7.8-4.8 0-7.1-3.3-7.1-7.6-.1-3.6 1.6-7.8 7.3-7.8zm-.2 13.3c2.1 0 4.4-1.5 4.4-5.8 0-3.6-1.7-5.5-4.2-5.5-1.7 0-4.5 1.1-4.5 5.6-.1 3 1.2 5.7 4.3 5.7zM65.9 52.2v-1.7h2.7v2.3c.3-.6 1.4-2.6 4.7-2.6 1.3 0 5.3.5 5.3 4.9v9.9h-2.8v-9.2c0-1-.1-1.8-.8-2.5-.7-.7-1.6-1-2.6-1-2 0-3.8 1.4-3.8 4.3v8.4h-2.7v-12.8zM91.3 50.5h2.6v-3l2.7-.9v3.9h3.2v2h-3.2v8.7c0 .7 0 1.9 1.9 1.9.5 0 1.1-.1 1.3-.1v2.1c-.5.1-1.3.2-2.3.2-2.5 0-3.7-.7-3.7-3.1v-9.7h-2.6v-2zM104.1 44.2h2.7v8.5c.9-1.5 2.7-2.4 4.7-2.4 1.5 0 3.7.5 4.6 2.3.3.6.5 1.3.5 3.4v9.1h-2.8v-8.6c0-1.3 0-4.1-3.1-4.1-2 0-3 1.2-3.4 1.9-.5.8-.5 2.2-.5 3.1v7.7h-2.7v-20.9zM124.4 58.3c-.1 3 1.2 5.2 4.2 5.2 1.8 0 3.2-.9 3.4-3h2.7c-.1.7-.2 1.9-1.2 3-.6.7-2.1 1.9-5 1.9-4.6 0-6.7-2.8-6.7-7.4 0-2.9.6-5.2 2.9-6.8 1.4-1 3.1-1.1 4-1.1 6.5 0 6.4 5.8 6.3 8.1h-10.6zm7.7-1.9c0-1.4-.2-4.3-3.6-4.3-1.8 0-3.9 1.1-4 4.3h7.6z"/><path class="st2" d="M51.6 79.5c.3-1.1.8-3.3.8-4.1 0-1.3-.9-2.1-3.1-2.1h-2l.6-1.7h2.5c3 0 6.1-.2 9-.9l-2.4 9h.1c2-3.2 5.6-9.1 10.1-9.1 2 0 3.4 1.4 3.4 3.6 0 2.3-1.3 5-3.7 5-2.1 0-3.1-1.6-3.1-2.7 0-.5-.3-.7-.9-.7-1.6 0-6.2 6.7-7.8 12.3l-3.4 12h-5.9l5.8-20.6zM96.1 93.4c-.2.9-.5 2.3-.5 2.9 0 1.4.8 2.1 1.7 2.1 2.1 0 3.8-4.2 4.2-5.7h2c-1 3.9-3.5 8.4-8 8.4-3.4 0-4.9-3-4.9-5.9 0-1.1.1-2.1.5-3.1h-.1c-2.3 4-6.6 9-12.2 9-3.3 0-5.4-2.4-5.4-5.7 0-.9.2-2.4.9-4.6l3.5-10.7c.3-1.2 1.2-4.2 1.2-5 0-1.3-.9-1.9-2.8-1.9h-2.3l.5-1.7h3.9c2.4 0 6.5-.2 8.6-.9l-7.3 22.4c-.3 1.1-.8 2.4-.8 3.5 0 1 1 1.9 2.4 1.9 5.3 0 10.3-9.6 12.8-18.8l2.2-8h6l-6.1 21.8zM112.6 79.5c.3-1.1.8-3.3.8-4.1 0-1.3-.9-2.1-3.1-2.1h-2l.6-1.7h2.5c3 0 6.1-.2 9-.9-.7 2.3-1.6 5.9-1.9 7.8h.2c2-3 5.6-7.8 11.2-7.8 3.2 0 5.7 1.9 5.7 5.5 0 2.2-.8 4.9-1.2 6.2l-3.5 10c-.7 2-1.2 3.6-1.2 4.5 0 .9.3 1.6 1.4 1.6 2.2 0 3.9-4 4.6-5.7h1.9c-1.5 4-3.5 8.4-8.5 8.4-3.8 0-4.8-2.7-4.8-5 0-1.9.6-4.3 1.4-6.7l3.3-9.3c.6-1.6 1.2-3.8 1.2-4.3 0-1.3-.6-2.5-2.3-2.5-4.4 0-10.1 8.7-11.6 14.1l-3.7 12.8h-5.9l5.9-20.8z"/><path class="st3" d="M8.2 114.5h169.6"/><path class="st4" d="M-78.4-57.1h360.4v257.2h-360.4z"/></svg>