<?xml version="1.0" encoding="utf-8"?>
<!-- Generator: Adobe Illustrator 19.1.0, SVG Export Plug-In . SVG Version: 6.00 Build 0)  -->
<!DOCTYPE svg PUBLIC "-//W3C//DTD SVG 1.1//EN" "http://www.w3.org/Graphics/SVG/1.1/DTD/svg11.dtd">
<svg version="1.1" id="Layer_1" xmlns="http://www.w3.org/2000/svg" xmlns:xlink="http://www.w3.org/1999/xlink" x="0px" y="0px"
	 width="185.8px" height="148.7px" viewBox="0 0 185.8 148.7" style="enable-background:new 0 0 185.8 148.7;" xml:space="preserve"
	>
<style type="text/css">
	.st0{fill:#ABB0B3;stroke:#FFFFFF;stroke-width:4;stroke-miterlimit:10;}
	.st1{fill:#FFFFFF;}
	.st2{fill:#A04847;}
	.st3{fill:none;stroke:#FFFFFF;stroke-width:3.808;stroke-miterlimit:10;}
	.st4{fill:none;stroke:#FFFFFF;stroke-width:0.7982;stroke-miterlimit:10;}
</style>
<rect x="8.2" y="9" class="st0" width="169.6" height="130.7"/>
<g>
	<path class="st1" d="M53.5,50.2c5.8,0,7.1,4.6,7.1,7.6c0,4.3-2.4,7.8-7.3,7.8c-4.8,0-7.1-3.3-7.1-7.6
		C46.1,54.4,47.8,50.2,53.5,50.2z M53.3,63.5c2.1,0,4.4-1.5,4.4-5.8c0-3.6-1.7-5.5-4.2-5.5c-1.7,0-4.5,1.1-4.5,5.6
		C48.9,60.8,50.2,63.5,53.3,63.5z"/>
	<path class="st1" d="M65.9,52.2l0-1.7h2.7l0,2.3c0.3-0.6,1.4-2.6,4.7-2.6c1.3,0,5.3,0.5,5.3,4.9v9.9h-2.8v-9.2c0-1-0.1-1.8-0.8-2.5
		c-0.7-0.7-1.6-1-2.6-1c-2,0-3.8,1.4-3.8,4.3v8.4h-2.7V52.2z"/>
	<path class="st1" d="M91.3,50.5h2.6v-3l2.7-0.9v3.9h3.2v2h-3.2v8.7c0,0.7,0,1.9,1.9,1.9c0.5,0,1.1-0.1,1.3-0.1v2.1
		c-0.5,0.1-1.3,0.2-2.3,0.2c-2.5,0-3.7-0.7-3.7-3.1v-9.7h-2.6V50.5z"/>
	<path class="st1" d="M104.1,44.2h2.7v8.5c0.9-1.5,2.7-2.4,4.7-2.4c1.5,0,3.7,0.5,4.6,2.3c0.3,0.6,0.5,1.3,0.5,3.4v9.1h-2.8v-8.6
		c0-1.3,0-4.1-3.1-4.1c-2,0-3,1.2-3.4,1.9c-0.5,0.8-0.5,2.2-0.5,3.1v7.7h-2.7V44.2z"/>
	<path class="st1" d="M124.4,58.3c-0.1,3,1.2,5.2,4.2,5.2c1.8,0,3.2-0.9,3.4-3h2.7c-0.1,0.7-0.2,1.9-1.2,3c-0.6,0.7-2.1,1.9-5,1.9
		c-4.6,0-6.7-2.8-6.7-7.4c0-2.9,0.6-5.2,2.9-6.8c1.4-1,3.1-1.1,4-1.1c6.5,0,6.4,5.8,6.3,8.1H124.4z M132.1,56.4
		c0-1.4-0.2-4.3-3.6-4.3c-1.8,0-3.9,1.1-4,4.3H132.1z"/>
	<path class="st2" d="M51.6,79.5c0.3-1.1,0.8-3.3,0.8-4.1c0-1.3-0.9-2.1-3.1-2.1h-2l0.6-1.7h2.5c3,0,6.1-0.2,9-0.9L57,79.7h0.1
		c2-3.2,5.6-9.1,10.1-9.1c2,0,3.4,1.4,3.4,3.6c0,2.3-1.3,5-3.7,5c-2.1,0-3.1-1.6-3.1-2.7c0-0.5-0.3-0.7-0.9-0.7
		c-1.6,0-6.2,6.7-7.8,12.3l-3.4,12h-5.9L51.6,79.5z"/>
	<path class="st2" d="M96.1,93.4c-0.2,0.9-0.5,2.3-0.5,2.9c0,1.4,0.8,2.1,1.7,2.1c2.1,0,3.8-4.2,4.2-5.7h2c-1,3.9-3.5,8.4-8,8.4
		c-3.4,0-4.9-3-4.9-5.9c0-1.1,0.1-2.1,0.5-3.1h-0.1c-2.3,4-6.6,9-12.2,9c-3.3,0-5.4-2.4-5.4-5.7c0-0.9,0.2-2.4,0.9-4.6l3.5-10.7
		c0.3-1.2,1.2-4.2,1.2-5c0-1.3-0.9-1.9-2.8-1.9h-2.3l0.5-1.7h3.9c2.4,0,6.5-0.2,8.6-0.9L79.6,93c-0.3,1.1-0.8,2.4-0.8,3.5
		c0,1,1,1.9,2.4,1.9c5.3,0,10.3-9.6,12.8-18.8l2.2-8h6L96.1,93.4z"/>
	<path class="st2" d="M112.6,79.5c0.3-1.1,0.8-3.3,0.8-4.1c0-1.3-0.9-2.1-3.1-2.1h-2l0.6-1.7h2.5c3,0,6.1-0.2,9-0.9
		c-0.7,2.3-1.6,5.9-1.9,7.8h0.2c2-3,5.6-7.8,11.2-7.8c3.2,0,5.7,1.9,5.7,5.5c0,2.2-0.8,4.9-1.2,6.2l-3.5,10c-0.7,2-1.2,3.6-1.2,4.5
		c0,0.9,0.3,1.6,1.4,1.6c2.2,0,3.9-4,4.6-5.7h1.9c-1.5,4-3.5,8.4-8.5,8.4c-3.8,0-4.8-2.7-4.8-5c0-1.9,0.6-4.3,1.4-6.7l3.3-9.3
		c0.6-1.6,1.2-3.8,1.2-4.3c0-1.3-0.6-2.5-2.3-2.5c-4.4,0-10.1,8.7-11.6,14.1l-3.7,12.8h-5.9L112.6,79.5z"/>
</g>
<line class="st3" x1="8.2" y1="114.5" x2="177.8" y2="114.5"/>
<rect x="-78.4" y="-57.1" class="st4" width="360.4" height="257.2"/>
<g>
</g>
<g>
</g>
<g>
</g>
<g>
</g>
<g>
</g>
<g>
</g>
</svg>
