<svg xmlns="http://www.w3.org/2000/svg" width="145.7" height="134.5" viewBox="-232 329.5 145.7 134.5" enable-background="new -232 329.5 145.7 134.5"><style type="text/css">.st0{fill:#FFFFFF;stroke:#A04948;stroke-width:3.9067;stroke-miterlimit:10;}</style><path class="st0" d="M-218.4 378.7s-2.8 0-3.5-3.6v-11.6s-.5-1.3 1.7-4.3l12.5-15.6s1.3-2.5 7.1-3.2h84.9s5.7 1.3 7.3 4c1.6 2.7 12.7 15.7 12.7 15.7s1.1 3.5 1.2 6.1l.1 8.9s.2 2.7-3.6 3.5c-3.6.9-120.4.1-120.4.1zM-218 385h119.4v56.9s.5 9.2-12 11.2h-96.2s-8.6-1.1-10.7-11.1l-.5-57zM-145.5 401.8h-24.9c-4.9 0-8.9 4-8.9 8.9 0 4.3 3.1 7.9 7.2 8.8l1.1.1h25.5c4.9 0 8.9-4 8.9-8.9s-4-8.9-8.9-8.9z"/></svg>