<?xml version="1.0" encoding="utf-8"?>
<!-- Generator: Adobe Illustrator 19.1.0, SVG Export Plug-In . SVG Version: 6.00 Build 0)  -->
<!DOCTYPE svg PUBLIC "-//W3C//DTD SVG 1.1//EN" "http://www.w3.org/Graphics/SVG/1.1/DTD/svg11.dtd">
<svg version="1.1" id="Layer_1" xmlns="http://www.w3.org/2000/svg" xmlns:xlink="http://www.w3.org/1999/xlink" x="0px" y="0px"
	 width="145.7px" height="134.5px" viewBox="0 0 145.7 134.5" style="enable-background:new 0 0 145.7 134.5;" xml:space="preserve"
	>
<style type="text/css">
	.st0{fill:none;stroke:#A04948;stroke-width:3.9067;stroke-miterlimit:10;}
	.st1{fill:#FFFFFF;stroke:#A04948;stroke-width:3.9067;stroke-miterlimit:10;}
</style>
<path class="st0" d="M13.6,49.2c0,0-2.8,0-3.5-3.6V34c0,0-0.5-1.3,1.7-4.3l12.5-15.6c0,0,1.3-2.5,7.1-3.2h84.9c0,0,5.7,1.3,7.3,4
	c1.6,2.7,12.7,15.7,12.7,15.7s1.1,3.5,1.2,6.1l0.1,8.9c0,0,0.2,2.7-3.6,3.5C130.4,50,13.6,49.2,13.6,49.2z"/>
<path class="st0" d="M14,55.5h119.4v56.9c0,0,0.5,9.2-12,11.2H25.2c0,0-8.6-1.1-10.7-11.1L14,55.5z"/>
<path class="st1" d="M86.5,72.3c-0.6,0-24.3,0-24.9,0c-4.9,0-8.9,4-8.9,8.9c0,4.3,3.1,7.9,7.2,8.8l1.1,0.1c0.2,0,25.3,0,25.5,0
	c4.9,0,8.9-4,8.9-8.9S91.4,72.3,86.5,72.3z"/>
<g>
</g>
<g>
</g>
<g>
</g>
<g>
</g>
<g>
</g>
<g>
</g>
</svg>
